<svg xmlns="http://www.w3.org/2000/svg" xmlns:xlink="http://www.w3.org/1999/xlink" width="500" zoomAndPan="magnify" viewBox="0 0 375 374.999991" height="500" preserveAspectRatio="xMidYMid meet" version="1.2"><defs><clipPath id="58efc243ec"><path d="M 0 128.886719 L 109.757812 128.886719 L 109.757812 245.886719 L 0 245.886719 Z M 0 128.886719 "/></clipPath><clipPath id="4bd54c4c7e"><path d="M 71 172 L 88 172 L 88 190 L 71 190 Z M 71 172 "/></clipPath><clipPath id="93233e4b8c"><path d="M 80.449219 189.148438 L 71.824219 177.65625 L 78.609375 172.566406 L 87.234375 184.054688 Z M 80.449219 189.148438 "/></clipPath><clipPath id="c6bbca2d35"><path d="M 74 187 L 88 187 L 88 203 L 74 203 Z M 74 187 "/></clipPath><clipPath id="01d5a0ac79"><path d="M 81.148438 202.417969 L 74.652344 198.199219 L 81.476562 187.683594 L 87.972656 191.902344 Z M 81.148438 202.417969 "/></clipPath></defs><g id="b736f14c3b"><path style=" stroke:none;fill-rule:nonzero;fill:#9fff47;fill-opacity:1;" d="M 49.117188 132.992188 C 48.480469 133.359375 47.941406 133.832031 47.496094 134.417969 C 47.050781 135.003906 46.738281 135.652344 46.558594 136.363281 C 45.378906 141.203125 45.222656 146.078125 46.089844 150.980469 C 37.078125 148.90625 29.980469 150.242188 25.847656 151.582031 C 25.527344 151.683594 25.21875 151.816406 24.921875 151.976562 C 24.628906 152.136719 24.347656 152.324219 24.085938 152.535156 C 23.828125 152.746094 23.585938 152.976562 23.367188 153.234375 C 23.148438 153.488281 22.957031 153.761719 22.789062 154.054688 C 22.621094 154.34375 22.480469 154.648438 22.367188 154.964844 C 22.257812 155.28125 22.175781 155.609375 22.121094 155.941406 C 22.070312 156.273438 22.046875 156.605469 22.058594 156.941406 C 22.066406 157.277344 22.105469 157.609375 22.179688 157.9375 C 23.242188 162.703125 25.183594 167.078125 28.003906 171.0625 C 24.65625 172.453125 21.546875 174.253906 18.675781 176.464844 C 15.800781 178.671875 13.261719 181.214844 11.058594 184.09375 C 10.699219 184.566406 10.425781 185.085938 10.238281 185.648438 C 10.046875 186.210938 9.953125 186.792969 9.953125 187.386719 C 9.953125 187.980469 10.046875 188.558594 10.238281 189.121094 C 10.425781 189.6875 10.699219 190.203125 11.058594 190.679688 C 13.261719 193.554688 15.800781 196.097656 18.675781 198.308594 C 21.546875 200.515625 24.65625 202.316406 28.003906 203.710938 C 25.183594 207.695312 23.242188 212.066406 22.179688 216.832031 C 22.105469 217.160156 22.066406 217.492188 22.058594 217.828125 C 22.046875 218.164062 22.070312 218.5 22.121094 218.832031 C 22.175781 219.164062 22.257812 219.488281 22.367188 219.804688 C 22.480469 220.121094 22.621094 220.425781 22.789062 220.71875 C 22.957031 221.007812 23.148438 221.28125 23.367188 221.539062 C 23.585938 221.792969 23.828125 222.027344 24.089844 222.238281 C 24.347656 222.449219 24.628906 222.636719 24.925781 222.792969 C 25.21875 222.953125 25.527344 223.085938 25.847656 223.1875 C 29.980469 224.53125 37.078125 225.863281 46.089844 223.789062 C 45.222656 228.695312 45.378906 233.566406 46.558594 238.410156 C 46.648438 238.761719 46.773438 239.097656 46.929688 239.425781 C 47.089844 239.753906 47.277344 240.0625 47.5 240.351562 C 47.71875 240.640625 47.964844 240.90625 48.238281 241.144531 C 48.507812 241.386719 48.804688 241.597656 49.117188 241.777344 C 49.433594 241.960938 49.761719 242.109375 50.105469 242.222656 C 50.449219 242.339844 50.804688 242.421875 51.164062 242.464844 C 51.523438 242.511719 51.886719 242.523438 52.246094 242.496094 C 52.609375 242.46875 52.964844 242.40625 53.316406 242.308594 C 58.832031 240.765625 69.324219 236.027344 77.648438 221.613281 C 86.003906 207.140625 86.003906 194.296875 86.003906 187.394531 L 86.007812 187.386719 L 86.003906 187.386719 L 86.007812 187.382812 L 86.003906 187.378906 C 86.003906 180.476562 86.003906 167.628906 77.648438 153.160156 C 69.324219 138.742188 58.832031 134.003906 53.316406 132.460938 C 52.609375 132.261719 51.890625 132.207031 51.164062 132.300781 C 50.433594 132.394531 49.753906 132.625 49.117188 132.992188 Z M 25.753906 157.179688 C 25.707031 156.957031 25.699219 156.734375 25.734375 156.511719 C 25.769531 156.289062 25.84375 156.078125 25.957031 155.882812 C 26.070312 155.6875 26.214844 155.519531 26.390625 155.378906 C 26.566406 155.234375 26.761719 155.128906 26.976562 155.058594 C 31.070312 153.730469 38.394531 152.421875 47.789062 155.210938 C 47.882812 155.246094 47.984375 155.277344 48.085938 155.296875 C 51.703125 156.417969 55.148438 157.9375 58.421875 159.851562 C 65.175781 163.820312 70.90625 168.933594 75.613281 175.195312 C 75.902344 175.578125 76.179688 175.957031 76.453125 176.335938 C 70.375 171.71875 61.039062 167.277344 47.613281 167.277344 C 42.125 167.234375 36.769531 168.050781 31.542969 169.734375 C 28.71875 165.960938 26.789062 161.777344 25.753906 157.179688 Z M 13.988281 188.492188 C 13.738281 188.164062 13.617188 187.796875 13.617188 187.386719 C 13.617188 186.976562 13.738281 186.605469 13.988281 186.28125 C 17.429688 181.664062 27.601562 170.933594 47.613281 170.933594 C 58.152344 170.933594 67.230469 173.839844 74.597656 179.574219 C 77.484375 181.789062 79.957031 184.390625 82.023438 187.386719 C 79.957031 190.378906 77.484375 192.984375 74.597656 195.199219 C 67.230469 200.933594 58.152344 203.839844 47.613281 203.839844 C 27.601562 203.839844 17.429688 193.105469 13.988281 188.492188 Z M 26.976562 219.710938 C 26.761719 219.640625 26.566406 219.535156 26.390625 219.394531 C 26.214844 219.253906 26.070312 219.082031 25.957031 218.886719 C 25.84375 218.691406 25.769531 218.484375 25.734375 218.257812 C 25.699219 218.035156 25.707031 217.8125 25.753906 217.59375 C 26.789062 212.996094 28.71875 208.8125 31.542969 205.039062 C 36.769531 206.71875 42.125 207.539062 47.613281 207.496094 C 61.039062 207.496094 70.375 203.054688 76.453125 198.4375 C 76.179688 198.8125 75.902344 199.195312 75.613281 199.574219 C 70.90625 205.835938 65.175781 210.953125 58.421875 214.921875 C 55.136719 216.84375 51.675781 218.363281 48.042969 219.488281 C 47.957031 219.507812 47.875 219.53125 47.792969 219.5625 C 38.398438 222.347656 31.070312 221.042969 26.976562 219.710938 Z M 52.332031 238.789062 C 52.097656 238.851562 51.859375 238.871094 51.621094 238.839844 C 51.382812 238.808594 51.15625 238.730469 50.945312 238.609375 C 50.738281 238.488281 50.558594 238.332031 50.410156 238.140625 C 50.265625 237.949219 50.160156 237.734375 50.101562 237.5 C 49.285156 234.324219 48.644531 229.230469 50.015625 222.699219 C 53.589844 221.519531 57 219.984375 60.25 218.085938 C 70.445312 212.203125 77.777344 203.621094 81.980469 196.679688 C 81.578125 200.757812 80.746094 204.742188 79.480469 208.636719 C 78.214844 212.535156 76.550781 216.25 74.480469 219.785156 C 66.808594 233.078125 57.308594 237.394531 52.332031 238.789062 Z M 52.332031 135.984375 C 57.308594 137.375 66.808594 141.695312 74.480469 154.988281 C 76.550781 158.523438 78.214844 162.238281 79.480469 166.132812 C 80.746094 170.03125 81.578125 174.015625 81.980469 178.09375 C 77.777344 171.152344 70.445312 162.570312 60.25 156.683594 C 57 154.789062 53.589844 153.253906 50.015625 152.074219 C 48.644531 145.539062 49.285156 140.449219 50.101562 137.273438 C 50.160156 137.039062 50.265625 136.824219 50.410156 136.632812 C 50.558594 136.4375 50.738281 136.28125 50.945312 136.160156 C 51.15625 136.039062 51.382812 135.964844 51.621094 135.933594 C 51.859375 135.902344 52.097656 135.917969 52.332031 135.984375 Z M 52.332031 135.984375 "/><g clip-rule="nonzero" clip-path="url(#58efc243ec)"><path style="fill:none;stroke-width:9.728;stroke-linecap:butt;stroke-linejoin:miter;stroke:#9fff47;stroke-opacity:1;stroke-miterlimit:4;" d="M 247.015189 123.287041 C 246.21177 121.893879 245.177582 120.714392 243.895531 119.740033 C 242.61348 118.765674 241.194676 118.081914 239.63912 117.688752 C 229.049376 115.107556 218.382709 114.765675 207.656213 116.663111 C 212.194675 96.945166 209.271597 81.415255 206.339973 72.372522 C 206.117751 71.671667 205.827153 70.996454 205.476725 70.346881 C 205.126298 69.705856 204.716042 69.090471 204.254503 68.517822 C 203.792965 67.953719 203.288691 67.423805 202.724589 66.945172 C 202.169033 66.46654 201.570742 66.047737 200.929717 65.680215 C 200.297238 65.312694 199.630571 65.005002 198.938264 64.757139 C 198.245956 64.517823 197.528007 64.338335 196.801511 64.218677 C 196.075016 64.107566 195.34852 64.056284 194.613477 64.081925 C 193.878434 64.099019 193.151938 64.184489 192.43399 64.346882 C 182.006639 66.671668 172.433989 70.919531 163.71604 77.090469 C 160.673304 69.765685 156.733133 62.962267 151.895526 56.680217 C 147.066466 50.38962 141.502363 44.834066 135.203218 40.013554 C 134.169029 39.22723 133.032277 38.628939 131.801508 38.218683 C 130.570739 37.799879 129.297234 37.594751 127.998089 37.594751 C 126.698944 37.594751 125.433986 37.799879 124.203217 38.218683 C 122.963901 38.628939 121.835695 39.22723 120.79296 40.013554 C 114.502362 44.834066 108.938259 50.38962 104.100652 56.680217 C 99.271592 62.962267 95.331421 69.765685 92.280138 77.090469 C 83.562189 70.919531 73.998086 66.671668 63.570735 64.346882 C 62.852786 64.184489 62.126291 64.099019 61.391248 64.081925 C 60.656205 64.056284 59.921162 64.107566 59.194667 64.218677 C 58.468171 64.338335 57.758769 64.517823 57.066461 64.757139 C 56.374154 65.005002 55.707487 65.312694 55.066461 65.680215 C 54.433982 66.047737 53.835692 66.46654 53.271589 66.945172 C 52.716034 67.423805 52.203213 67.953719 51.741675 68.526369 C 51.280136 69.090471 50.86988 69.705856 50.527999 70.355428 C 50.177572 70.996454 49.886974 71.671667 49.664751 72.372522 C 46.72458 81.415255 43.81005 96.945166 48.348512 116.663111 C 37.613469 114.765675 26.955349 115.107556 16.357057 117.688752 C 15.587827 117.885333 14.852784 118.158837 14.134835 118.500717 C 13.416886 118.851144 12.741673 119.261401 12.109194 119.74858 C 11.476715 120.227213 10.895519 120.765674 10.374151 121.363964 C 9.844237 121.953708 9.382698 122.60328 8.989536 123.287041 C 8.587826 123.979349 8.26304 124.697297 8.015177 125.449434 C 7.758766 126.20157 7.579279 126.979348 7.485262 127.765673 C 7.382698 128.551997 7.357057 129.346869 7.416886 130.133193 C 7.476715 130.928065 7.613467 131.705843 7.827142 132.475073 C 11.203211 144.543447 21.570733 167.500707 53.109196 185.714378 C 84.775864 203.996426 112.87843 203.996426 127.980995 203.996426 L 127.998089 204.004973 L 127.998089 203.996426 L 128.006636 204.004973 L 128.015183 203.996426 C 143.117748 203.996426 171.22886 203.996426 202.886982 185.714378 C 234.433992 167.500707 244.801514 144.543447 248.177582 132.475073 C 248.61348 130.928065 248.733138 129.355416 248.52801 127.765673 C 248.322882 126.167382 247.818608 124.680203 247.015189 123.287041 Z M 194.092109 72.167394 C 194.579289 72.06483 195.066469 72.047736 195.553648 72.124659 C 196.040828 72.201582 196.502366 72.363975 196.929716 72.611838 C 197.357067 72.859701 197.724588 73.17594 198.032281 73.560556 C 198.34852 73.945171 198.579289 74.372521 198.733135 74.842607 C 201.639118 83.79987 204.502366 99.825507 198.399802 120.381059 C 198.322879 120.586187 198.254503 120.808409 198.211768 121.030631 C 195.758776 128.945159 192.43399 136.483619 188.245955 143.646011 C 179.562194 158.423786 168.374159 170.962245 154.673304 181.261388 C 153.835697 181.893866 153.006637 182.500704 152.177577 183.098994 C 162.280142 169.799852 171.998091 149.372506 171.998091 119.996443 C 172.092108 107.987899 170.305783 96.269953 166.622023 84.834058 C 174.878433 78.654572 184.03228 74.43235 194.092109 72.167394 Z M 125.579285 46.423809 C 126.297234 45.876801 127.100653 45.611844 127.998089 45.611844 C 128.895525 45.611844 129.707491 45.876801 130.416892 46.423809 C 140.519457 53.953722 163.998091 76.210128 163.998091 119.996443 C 163.998091 143.056268 157.639116 162.919511 145.092107 179.039166 C 140.245953 185.355404 134.553645 190.765659 127.998089 195.287026 C 121.45108 190.765659 115.750225 185.355404 110.904071 179.039166 C 98.357062 162.919511 91.998087 143.056268 91.998087 119.996443 C 91.998087 76.210128 115.485268 53.953722 125.579285 46.423809 Z M 57.271589 74.842607 C 57.425436 74.372521 57.656205 73.945171 57.963897 73.560556 C 58.27159 73.17594 58.647658 72.859701 59.075008 72.611838 C 59.502359 72.363975 59.95535 72.201582 60.451077 72.124659 C 60.938256 72.047736 61.425436 72.06483 61.904068 72.167394 C 71.963898 74.43235 81.117745 78.654572 89.374155 84.834058 C 85.698941 96.269953 83.90407 107.987899 83.998087 119.996443 C 83.998087 149.372506 93.716036 169.799852 103.8186 183.098994 C 102.998088 182.500704 102.160481 181.893866 101.331421 181.261388 C 87.630565 170.962245 76.433984 158.423786 67.750223 143.646011 C 63.545094 136.457978 60.220308 128.88533 57.758769 120.936614 C 57.716034 120.74858 57.664752 120.569093 57.596376 120.389606 C 51.502358 99.834054 54.357059 83.79987 57.271589 74.842607 Z M 15.527998 130.321228 C 15.391245 129.808407 15.34851 129.28704 15.416886 128.765672 C 15.485262 128.244305 15.656203 127.748579 15.92116 127.28704 C 16.186117 126.834049 16.527998 126.440886 16.946801 126.1161 C 17.365604 125.799861 17.83569 125.569092 18.348511 125.440887 C 25.297229 123.654562 36.442529 122.252853 50.733128 125.252853 C 53.314324 133.073364 56.673299 140.534901 60.827145 147.64601 C 73.698941 169.953698 92.47672 185.99643 107.664755 195.193009 C 98.741677 194.312667 90.023728 192.492155 81.50236 189.722924 C 72.972445 186.953694 64.844239 183.312669 57.109196 178.782756 C 28.023725 161.996435 18.57928 141.210114 15.527998 130.321228 Z M 240.46818 130.321228 C 237.425445 141.210114 227.972453 161.996435 198.886982 178.782756 C 191.151938 183.312669 183.023733 186.953694 174.502365 189.722924 C 165.97245 192.492155 157.254501 194.312667 148.331423 195.193009 C 163.519458 185.99643 182.297237 169.953698 195.17758 147.64601 C 199.322879 140.534901 202.681854 133.073364 205.26305 125.252853 C 219.562196 122.252853 230.698949 123.654562 237.647667 125.440887 C 238.160488 125.569092 238.630573 125.799861 239.049377 126.1161 C 239.476727 126.440886 239.818608 126.834049 240.083565 127.28704 C 240.348522 127.748579 240.510915 128.244305 240.579291 128.765672 C 240.647667 129.28704 240.613479 129.808407 240.46818 130.321228 Z M 240.46818 130.321228 " transform="matrix(0,-0.457031,0.457031,0,-7.228855,245.885842)"/></g><g style="fill:#ffffff;fill-opacity:1;"><g transform="translate(95.884913, 235.199809)"><path style="stroke:none" d="M 23.15625 -32.234375 C 25.226562 -32.234375 27.179688 -31.859375 29.015625 -31.109375 C 30.859375 -30.367188 32.472656 -29.289062 33.859375 -27.875 C 35.253906 -26.457031 36.351562 -24.726562 37.15625 -22.6875 C 37.957031 -20.644531 38.359375 -18.332031 38.359375 -15.75 C 38.359375 -13.164062 37.957031 -10.851562 37.15625 -8.8125 C 36.351562 -6.769531 35.253906 -5.039062 33.859375 -3.625 C 32.472656 -2.207031 30.859375 -1.125 29.015625 -0.375 C 27.179688 0.363281 25.226562 0.734375 23.15625 0.734375 C 20.988281 0.734375 19.007812 0.316406 17.21875 -0.515625 C 15.4375 -1.359375 14.097656 -2.5625 13.203125 -4.125 L 12.984375 0 L 4.578125 0 L 4.578125 -47.25 L 13.4375 -47.25 L 13.4375 -27.78125 C 14.363281 -29.21875 15.691406 -30.316406 17.421875 -31.078125 C 19.160156 -31.847656 21.070312 -32.234375 23.15625 -32.234375 Z M 21.109375 -6.609375 C 22.679688 -6.609375 24.097656 -6.976562 25.359375 -7.71875 C 26.617188 -8.457031 27.625 -9.507812 28.375 -10.875 C 29.125 -12.238281 29.5 -13.863281 29.5 -15.75 C 29.5 -17.65625 29.125 -19.289062 28.375 -20.65625 C 27.625 -22.019531 26.617188 -23.070312 25.359375 -23.8125 C 24.097656 -24.550781 22.679688 -24.921875 21.109375 -24.921875 C 19.546875 -24.921875 18.132812 -24.539062 16.875 -23.78125 C 15.613281 -23.019531 14.609375 -21.953125 13.859375 -20.578125 C 13.109375 -19.203125 12.734375 -17.59375 12.734375 -15.75 C 12.734375 -13.90625 13.101562 -12.300781 13.84375 -10.9375 C 14.582031 -9.570312 15.585938 -8.507812 16.859375 -7.75 C 18.128906 -6.988281 19.546875 -6.609375 21.109375 -6.609375 Z M 21.109375 -6.609375 "/></g></g><g style="fill:#ffffff;fill-opacity:1;"><g transform="translate(134.943081, 235.199809)"><path style="stroke:none" d="M 4.578125 0 L 4.578125 -47.25 L 13.53125 -47.25 L 13.53125 0 Z M 4.578125 0 "/></g></g><g style="fill:#ffffff;fill-opacity:1;"><g transform="translate(151.672397, 235.199809)"><path style="stroke:none" d="M 19.3125 0.609375 C 16.789062 0.609375 14.476562 0.242188 12.375 -0.484375 C 10.28125 -1.222656 8.453125 -2.304688 6.890625 -3.734375 C 5.328125 -5.160156 4.117188 -6.890625 3.265625 -8.921875 C 2.421875 -10.953125 2 -13.257812 2 -15.84375 C 2 -18.40625 2.421875 -20.703125 3.265625 -22.734375 C 4.117188 -24.765625 5.320312 -26.488281 6.875 -27.90625 C 8.425781 -29.320312 10.253906 -30.398438 12.359375 -31.140625 C 14.472656 -31.890625 16.789062 -32.265625 19.3125 -32.265625 C 21.863281 -32.265625 24.195312 -31.890625 26.3125 -31.140625 C 28.4375 -30.398438 30.269531 -29.320312 31.8125 -27.90625 C 33.363281 -26.488281 34.5625 -24.765625 35.40625 -22.734375 C 36.25 -20.703125 36.671875 -18.40625 36.671875 -15.84375 C 36.671875 -13.257812 36.242188 -10.953125 35.390625 -8.921875 C 34.535156 -6.890625 33.332031 -5.160156 31.78125 -3.734375 C 30.238281 -2.304688 28.410156 -1.222656 26.296875 -0.484375 C 24.191406 0.242188 21.863281 0.609375 19.3125 0.609375 Z M 19.21875 -6.421875 C 20.945312 -6.421875 22.457031 -6.8125 23.75 -7.59375 C 25.039062 -8.375 26.050781 -9.472656 26.78125 -10.890625 C 27.507812 -12.304688 27.875 -13.957031 27.875 -15.84375 C 27.875 -17.726562 27.507812 -19.378906 26.78125 -20.796875 C 26.050781 -22.210938 25.039062 -23.304688 23.75 -24.078125 C 22.457031 -24.859375 20.945312 -25.25 19.21875 -25.25 C 17.582031 -25.25 16.128906 -24.859375 14.859375 -24.078125 C 13.585938 -23.304688 12.59375 -22.210938 11.875 -20.796875 C 11.15625 -19.378906 10.796875 -17.726562 10.796875 -15.84375 C 10.796875 -13.957031 11.15625 -12.304688 11.875 -10.890625 C 12.59375 -9.472656 13.585938 -8.375 14.859375 -7.59375 C 16.128906 -6.8125 17.582031 -6.421875 19.21875 -6.421875 Z M 19.21875 -6.421875 "/></g></g><g style="fill:#ffffff;fill-opacity:1;"><g transform="translate(188.946717, 235.199809)"><path style="stroke:none" d="M 19.3125 0.609375 C 16.789062 0.609375 14.476562 0.242188 12.375 -0.484375 C 10.28125 -1.222656 8.453125 -2.304688 6.890625 -3.734375 C 5.328125 -5.160156 4.117188 -6.890625 3.265625 -8.921875 C 2.421875 -10.953125 2 -13.257812 2 -15.84375 C 2 -18.40625 2.421875 -20.703125 3.265625 -22.734375 C 4.117188 -24.765625 5.320312 -26.488281 6.875 -27.90625 C 8.425781 -29.320312 10.253906 -30.398438 12.359375 -31.140625 C 14.472656 -31.890625 16.789062 -32.265625 19.3125 -32.265625 C 21.863281 -32.265625 24.195312 -31.890625 26.3125 -31.140625 C 28.4375 -30.398438 30.269531 -29.320312 31.8125 -27.90625 C 33.363281 -26.488281 34.5625 -24.765625 35.40625 -22.734375 C 36.25 -20.703125 36.671875 -18.40625 36.671875 -15.84375 C 36.671875 -13.257812 36.242188 -10.953125 35.390625 -8.921875 C 34.535156 -6.890625 33.332031 -5.160156 31.78125 -3.734375 C 30.238281 -2.304688 28.410156 -1.222656 26.296875 -0.484375 C 24.191406 0.242188 21.863281 0.609375 19.3125 0.609375 Z M 19.21875 -6.421875 C 20.945312 -6.421875 22.457031 -6.8125 23.75 -7.59375 C 25.039062 -8.375 26.050781 -9.472656 26.78125 -10.890625 C 27.507812 -12.304688 27.875 -13.957031 27.875 -15.84375 C 27.875 -17.726562 27.507812 -19.378906 26.78125 -20.796875 C 26.050781 -22.210938 25.039062 -23.304688 23.75 -24.078125 C 22.457031 -24.859375 20.945312 -25.25 19.21875 -25.25 C 17.582031 -25.25 16.128906 -24.859375 14.859375 -24.078125 C 13.585938 -23.304688 12.59375 -22.210938 11.875 -20.796875 C 11.15625 -19.378906 10.796875 -17.726562 10.796875 -15.84375 C 10.796875 -13.957031 11.15625 -12.304688 11.875 -10.890625 C 12.59375 -9.472656 13.585938 -8.375 14.859375 -7.59375 C 16.128906 -6.8125 17.582031 -6.421875 19.21875 -6.421875 Z M 19.21875 -6.421875 "/></g></g><g style="fill:#ffffff;fill-opacity:1;"><g transform="translate(226.221037, 235.199809)"><path style="stroke:none" d="M 42.046875 -32.234375 C 44.304688 -32.234375 46.269531 -31.851562 47.9375 -31.09375 C 49.613281 -30.34375 50.90625 -29.234375 51.8125 -27.765625 C 52.726562 -26.296875 53.1875 -24.472656 53.1875 -22.296875 L 53.1875 0 L 44.328125 0 L 44.328125 -19.78125 C 44.328125 -21.03125 44.09375 -22.046875 43.625 -22.828125 C 43.164062 -23.609375 42.554688 -24.1875 41.796875 -24.5625 C 41.046875 -24.9375 40.226562 -25.125 39.34375 -25.125 C 38.300781 -25.125 37.320312 -24.898438 36.40625 -24.453125 C 35.488281 -24.003906 34.753906 -23.242188 34.203125 -22.171875 C 33.648438 -21.109375 33.375 -19.664062 33.375 -17.84375 L 33.375 0 L 24.421875 0 L 24.421875 -19.6875 C 24.421875 -20.957031 24.191406 -21.992188 23.734375 -22.796875 C 23.273438 -23.597656 22.664062 -24.1875 21.90625 -24.5625 C 21.144531 -24.9375 20.289062 -25.125 19.34375 -25.125 C 18.320312 -25.125 17.359375 -24.890625 16.453125 -24.421875 C 15.554688 -23.953125 14.820312 -23.15625 14.25 -22.03125 C 13.6875 -20.914062 13.40625 -19.363281 13.40625 -17.375 L 13.40625 0 L 4.578125 0 L 4.578125 -31.625 L 13.40625 -31.625 L 13.40625 -27.90625 C 14.457031 -29.300781 15.765625 -30.367188 17.328125 -31.109375 C 18.898438 -31.859375 20.648438 -32.234375 22.578125 -32.234375 C 24.878906 -32.234375 26.863281 -31.828125 28.53125 -31.015625 C 30.195312 -30.210938 31.441406 -29.039062 32.265625 -27.5 C 33.378906 -29.082031 34.765625 -30.265625 36.421875 -31.046875 C 38.078125 -31.835938 39.953125 -32.234375 42.046875 -32.234375 Z M 42.046875 -32.234375 "/></g></g><g style="fill:#ffffff;fill-opacity:1;"><g transform="translate(282.041216, 235.199809)"><path style="stroke:none" d="M 34.328125 -16.265625 L 34.234375 -14.15625 L 10.796875 -14.15625 C 10.921875 -12.40625 11.359375 -10.953125 12.109375 -9.796875 C 12.859375 -8.640625 13.828125 -7.78125 15.015625 -7.21875 C 16.203125 -6.65625 17.492188 -6.375 18.890625 -6.375 C 20.460938 -6.375 21.84375 -6.734375 23.03125 -7.453125 C 24.226562 -8.179688 25.125 -9.242188 25.71875 -10.640625 L 33.84375 -9.4375 C 33.144531 -7.3125 32.078125 -5.5 30.640625 -4 C 29.203125 -2.5 27.488281 -1.351562 25.5 -0.5625 C 23.507812 0.21875 21.328125 0.609375 18.953125 0.609375 C 15.546875 0.609375 12.578125 -0.0351562 10.046875 -1.328125 C 7.515625 -2.617188 5.550781 -4.488281 4.15625 -6.9375 C 2.757812 -9.382812 2.0625 -12.34375 2.0625 -15.8125 C 2.0625 -18.414062 2.460938 -20.738281 3.265625 -22.78125 C 4.078125 -24.820312 5.222656 -26.546875 6.703125 -27.953125 C 8.179688 -29.367188 9.9375 -30.445312 11.96875 -31.1875 C 14 -31.925781 16.234375 -32.296875 18.671875 -32.296875 C 20.910156 -32.296875 22.976562 -31.976562 24.875 -31.34375 C 26.769531 -30.707031 28.425781 -29.738281 29.84375 -28.4375 C 31.257812 -27.132812 32.359375 -25.472656 33.140625 -23.453125 C 33.929688 -21.429688 34.328125 -19.035156 34.328125 -16.265625 Z M 18.734375 -26.03125 C 16.617188 -26.03125 14.878906 -25.492188 13.515625 -24.421875 C 12.148438 -23.359375 11.296875 -21.664062 10.953125 -19.34375 L 25.625 -19.34375 C 25.476562 -21.5625 24.765625 -23.226562 23.484375 -24.34375 C 22.203125 -25.46875 20.617188 -26.03125 18.734375 -26.03125 Z M 18.734375 -26.03125 "/></g></g><g style="fill:#ffffff;fill-opacity:1;"><g transform="translate(317.131855, 235.199809)"><path style="stroke:none" d="M 13.265625 -26.953125 C 13.835938 -27.847656 14.640625 -28.675781 15.671875 -29.4375 C 16.710938 -30.195312 17.894531 -30.8125 19.21875 -31.28125 C 20.550781 -31.757812 21.945312 -32 23.40625 -32 L 23.40625 -24.09375 C 21.175781 -24.09375 19.328125 -23.832031 17.859375 -23.3125 C 16.390625 -22.800781 15.296875 -21.914062 14.578125 -20.65625 C 13.859375 -19.394531 13.5 -17.644531 13.5 -15.40625 L 13.5 0 L 4.578125 0 L 4.578125 -31.625 L 12.984375 -31.625 Z M 13.265625 -26.953125 "/></g></g><g style="fill:#ffffff;fill-opacity:1;"><g transform="translate(339.735559, 235.199809)"><path style="stroke:none" d="M 25.28125 -31.625 L 34.359375 -31.625 L 14.609375 15.5 L 5.65625 15.5 L 13.109375 -1.296875 L 0.09375 -31.625 L 9.75 -31.625 L 17.28125 -10.828125 Z M 25.28125 -31.625 "/></g></g><g style="fill:#ffffff;fill-opacity:1;"><g transform="translate(95.884913, 183.851633)"><path style="stroke:none" d="M 44.375 -31.609375 L 53.546875 -31.609375 L 42.46875 0.03125 L 34.265625 0.03125 L 26.9375 -20.84375 L 19.5625 0.03125 L 11.21875 0.03125 L 0.375 -31.609375 L 9.5 -31.609375 L 16.015625 -11.046875 L 23.5 -31.609375 L 30.296875 -31.609375 L 37.734375 -11.109375 Z M 44.375 -31.609375 "/></g></g><g style="fill:#ffffff;fill-opacity:1;"><g transform="translate(148.376918, 183.851633)"><path style="stroke:none" d="M 34.328125 -16.265625 L 34.234375 -14.140625 L 10.796875 -14.140625 C 10.921875 -12.398438 11.351562 -10.953125 12.09375 -9.796875 C 12.84375 -8.640625 13.8125 -7.773438 15 -7.203125 C 16.195312 -6.640625 17.492188 -6.359375 18.890625 -6.359375 C 20.460938 -6.359375 21.84375 -6.722656 23.03125 -7.453125 C 24.21875 -8.179688 25.109375 -9.242188 25.703125 -10.640625 L 33.828125 -9.4375 C 33.128906 -7.3125 32.0625 -5.5 30.625 -4 C 29.195312 -2.5 27.488281 -1.351562 25.5 -0.5625 C 23.507812 0.21875 21.320312 0.609375 18.9375 0.609375 C 15.539062 0.609375 12.578125 -0.0351562 10.046875 -1.328125 C 7.515625 -2.617188 5.550781 -4.488281 4.15625 -6.9375 C 2.757812 -9.382812 2.0625 -12.34375 2.0625 -15.8125 C 2.0625 -18.414062 2.460938 -20.734375 3.265625 -22.765625 C 4.078125 -24.804688 5.222656 -26.535156 6.703125 -27.953125 C 8.179688 -29.367188 9.9375 -30.445312 11.96875 -31.1875 C 14 -31.925781 16.234375 -32.296875 18.671875 -32.296875 C 20.898438 -32.296875 22.960938 -31.976562 24.859375 -31.34375 C 26.753906 -30.707031 28.410156 -29.738281 29.828125 -28.4375 C 31.242188 -27.132812 32.347656 -25.472656 33.140625 -23.453125 C 33.929688 -21.429688 34.328125 -19.035156 34.328125 -16.265625 Z M 18.734375 -26.015625 C 16.617188 -26.015625 14.878906 -25.476562 13.515625 -24.40625 C 12.148438 -23.34375 11.296875 -21.65625 10.953125 -19.34375 L 25.625 -19.34375 C 25.476562 -21.5625 24.765625 -23.226562 23.484375 -24.34375 C 22.203125 -25.457031 20.617188 -26.015625 18.734375 -26.015625 Z M 18.734375 -26.015625 "/></g></g><g style="fill:#ffffff;fill-opacity:1;"><g transform="translate(183.46314, 183.851633)"><path style="stroke:none" d="M 23.15625 -32.234375 C 25.226562 -32.234375 27.179688 -31.859375 29.015625 -31.109375 C 30.847656 -30.359375 32.460938 -29.273438 33.859375 -27.859375 C 35.253906 -26.441406 36.347656 -24.710938 37.140625 -22.671875 C 37.941406 -20.640625 38.34375 -18.332031 38.34375 -15.75 C 38.34375 -13.164062 37.941406 -10.851562 37.140625 -8.8125 C 36.347656 -6.769531 35.253906 -5.039062 33.859375 -3.625 C 32.460938 -2.207031 30.847656 -1.125 29.015625 -0.375 C 27.179688 0.363281 25.226562 0.734375 23.15625 0.734375 C 20.976562 0.734375 19 0.316406 17.21875 -0.515625 C 15.4375 -1.359375 14.09375 -2.5625 13.1875 -4.125 L 12.984375 0 L 4.578125 0 L 4.578125 -47.234375 L 13.4375 -47.234375 L 13.4375 -27.765625 C 14.363281 -29.203125 15.691406 -30.304688 17.421875 -31.078125 C 19.148438 -31.847656 21.0625 -32.234375 23.15625 -32.234375 Z M 21.09375 -6.609375 C 22.675781 -6.609375 24.097656 -6.976562 25.359375 -7.71875 C 26.617188 -8.457031 27.625 -9.507812 28.375 -10.875 C 29.125 -12.238281 29.5 -13.863281 29.5 -15.75 C 29.5 -17.65625 29.125 -19.289062 28.375 -20.65625 C 27.625 -22.019531 26.617188 -23.066406 25.359375 -23.796875 C 24.097656 -24.535156 22.675781 -24.90625 21.09375 -24.90625 C 19.539062 -24.90625 18.132812 -24.523438 16.875 -23.765625 C 15.613281 -23.015625 14.609375 -21.953125 13.859375 -20.578125 C 13.109375 -19.203125 12.734375 -17.59375 12.734375 -15.75 C 12.734375 -13.90625 13.101562 -12.300781 13.84375 -10.9375 C 14.582031 -9.570312 15.585938 -8.507812 16.859375 -7.75 C 18.128906 -6.988281 19.539062 -6.609375 21.09375 -6.609375 Z M 21.09375 -6.609375 "/></g></g><g clip-rule="nonzero" clip-path="url(#4bd54c4c7e)"><g clip-rule="nonzero" clip-path="url(#93233e4b8c)"><path style=" stroke:none;fill-rule:nonzero;fill:#9fff47;fill-opacity:1;" d="M 80.449219 189.148438 L 71.820312 177.648438 L 78.601562 172.558594 L 87.234375 184.054688 Z M 80.449219 189.148438 "/></g></g><g clip-rule="nonzero" clip-path="url(#c6bbca2d35)"><g clip-rule="nonzero" clip-path="url(#01d5a0ac79)"><path style=" stroke:none;fill-rule:nonzero;fill:#9fff47;fill-opacity:1;" d="M 81.148438 202.417969 L 74.652344 198.199219 L 81.46875 187.695312 L 87.964844 191.910156 Z M 81.148438 202.417969 "/></g></g></g></svg>