<svg xmlns="http://www.w3.org/2000/svg" xmlns:xlink="http://www.w3.org/1999/xlink" width="500" zoomAndPan="magnify" viewBox="0 0 375 74.999997" height="100" preserveAspectRatio="xMidYMid meet" version="1.2"><defs><clipPath id="2584027b41"><path d="M 185.890625 4.015625 L 204.699219 4.015625 L 204.699219 22.828125 L 185.890625 22.828125 Z M 185.890625 4.015625 "/></clipPath><clipPath id="74e452da97"><path d="M 195.296875 4.015625 C 190.101562 4.015625 185.890625 8.226562 185.890625 13.421875 C 185.890625 18.617188 190.101562 22.828125 195.296875 22.828125 C 200.488281 22.828125 204.699219 18.617188 204.699219 13.421875 C 204.699219 8.226562 200.488281 4.015625 195.296875 4.015625 Z M 195.296875 4.015625 "/></clipPath></defs><g id="8d91f8d4bd"><path style=" stroke:none;fill-rule:nonzero;fill:#000000;fill-opacity:1;" d="M 182.628906 20.738281 C 189.390625 20.738281 194.996094 25.6875 196.023438 32.160156 C 198.300781 29.890625 201.445312 28.488281 204.910156 28.488281 L 213.628906 28.488281 L 213.628906 33.332031 C 213.628906 40.285156 207.992188 45.925781 201.035156 45.925781 L 196.191406 45.925781 L 196.191406 55.613281 L 192.316406 55.613281 L 192.316406 40.113281 L 188.441406 40.113281 C 180.953125 40.113281 174.878906 34.039062 174.878906 26.550781 L 174.878906 20.738281 Z M 209.753906 32.363281 L 204.910156 32.363281 C 200.097656 32.363281 196.191406 36.265625 196.191406 41.082031 L 196.191406 42.050781 L 201.035156 42.050781 C 205.851562 42.050781 209.753906 38.144531 209.753906 33.332031 Z M 182.628906 24.613281 L 178.753906 24.613281 L 178.753906 26.550781 C 178.753906 31.898438 183.09375 36.238281 188.441406 36.238281 L 192.316406 36.238281 L 192.316406 34.300781 C 192.316406 28.949219 187.980469 24.613281 182.628906 24.613281 Z M 182.628906 24.613281 "/><g style="fill:#ffde59;fill-opacity:1;"><g transform="translate(61.909553, 65.150308)"><path style="stroke:none" d="M 15.390625 0.4375 C 12.765625 0.4375 10.390625 -0.128906 8.265625 -1.265625 C 6.140625 -2.410156 4.46875 -3.992188 3.25 -6.015625 C 2.039062 -8.046875 1.4375 -10.335938 1.4375 -12.890625 C 1.4375 -15.441406 2.039062 -17.726562 3.25 -19.75 C 4.46875 -21.769531 6.140625 -23.347656 8.265625 -24.484375 C 10.390625 -25.628906 12.773438 -26.203125 15.421875 -26.203125 C 17.660156 -26.203125 19.679688 -25.8125 21.484375 -25.03125 C 23.285156 -24.25 24.800781 -23.117188 26.03125 -21.640625 L 22.203125 -18.109375 C 20.453125 -20.117188 18.289062 -21.125 15.71875 -21.125 C 14.125 -21.125 12.703125 -20.773438 11.453125 -20.078125 C 10.203125 -19.378906 9.222656 -18.40625 8.515625 -17.15625 C 7.816406 -15.90625 7.46875 -14.484375 7.46875 -12.890625 C 7.46875 -11.285156 7.816406 -9.859375 8.515625 -8.609375 C 9.222656 -7.359375 10.203125 -6.382812 11.453125 -5.6875 C 12.703125 -4.988281 14.125 -4.640625 15.71875 -4.640625 C 18.289062 -4.640625 20.453125 -5.65625 22.203125 -7.6875 L 26.03125 -4.15625 C 24.800781 -2.664062 23.273438 -1.523438 21.453125 -0.734375 C 19.640625 0.046875 17.617188 0.4375 15.390625 0.4375 Z M 15.390625 0.4375 "/></g></g><g style="fill:#000000;fill-opacity:1;"><g transform="translate(88.196391, 65.150308)"><path style="stroke:none" d="M 12.078125 0.296875 C 9.992188 0.296875 8.117188 -0.132812 6.453125 -1 C 4.796875 -1.875 3.5 -3.082031 2.5625 -4.625 C 1.632812 -6.175781 1.171875 -7.9375 1.171875 -9.90625 C 1.171875 -11.863281 1.632812 -13.613281 2.5625 -15.15625 C 3.5 -16.707031 4.796875 -17.914062 6.453125 -18.78125 C 8.117188 -19.65625 9.992188 -20.09375 12.078125 -20.09375 C 14.160156 -20.09375 16.023438 -19.65625 17.671875 -18.78125 C 19.316406 -17.914062 20.601562 -16.707031 21.53125 -15.15625 C 22.46875 -13.613281 22.9375 -11.863281 22.9375 -9.90625 C 22.9375 -7.9375 22.46875 -6.175781 21.53125 -4.625 C 20.601562 -3.082031 19.316406 -1.875 17.671875 -1 C 16.023438 -0.132812 14.160156 0.296875 12.078125 0.296875 Z M 12.078125 -4.421875 C 13.546875 -4.421875 14.753906 -4.914062 15.703125 -5.90625 C 16.648438 -6.90625 17.125 -8.238281 17.125 -9.90625 C 17.125 -11.570312 16.648438 -12.898438 15.703125 -13.890625 C 14.753906 -14.890625 13.546875 -15.390625 12.078125 -15.390625 C 10.597656 -15.390625 9.378906 -14.890625 8.421875 -13.890625 C 7.472656 -12.898438 7 -11.570312 7 -9.90625 C 7 -8.238281 7.472656 -6.90625 8.421875 -5.90625 C 9.378906 -4.914062 10.597656 -4.421875 12.078125 -4.421875 Z M 12.078125 -4.421875 "/></g></g><g style="fill:#000000;fill-opacity:1;"><g transform="translate(112.307594, 65.150308)"><path style="stroke:none" d="M 22.828125 -27.3125 L 22.828125 0 L 17.34375 0 L 17.34375 -2.28125 C 15.914062 -0.5625 13.851562 0.296875 11.15625 0.296875 C 9.289062 0.296875 7.601562 -0.117188 6.09375 -0.953125 C 4.582031 -1.785156 3.394531 -2.972656 2.53125 -4.515625 C 1.675781 -6.066406 1.25 -7.863281 1.25 -9.90625 C 1.25 -11.9375 1.675781 -13.722656 2.53125 -15.265625 C 3.394531 -16.816406 4.582031 -18.007812 6.09375 -18.84375 C 7.601562 -19.675781 9.289062 -20.09375 11.15625 -20.09375 C 13.6875 -20.09375 15.660156 -19.296875 17.078125 -17.703125 L 17.078125 -27.3125 Z M 12.140625 -4.421875 C 13.585938 -4.421875 14.789062 -4.914062 15.75 -5.90625 C 16.707031 -6.90625 17.1875 -8.238281 17.1875 -9.90625 C 17.1875 -11.570312 16.707031 -12.898438 15.75 -13.890625 C 14.789062 -14.890625 13.585938 -15.390625 12.140625 -15.390625 C 10.671875 -15.390625 9.457031 -14.890625 8.5 -13.890625 C 7.539062 -12.898438 7.0625 -11.570312 7.0625 -9.90625 C 7.0625 -8.238281 7.539062 -6.90625 8.5 -5.90625 C 9.457031 -4.914062 10.671875 -4.421875 12.140625 -4.421875 Z M 12.140625 -4.421875 "/></g></g><g style="fill:#000000;fill-opacity:1;"><g transform="translate(137.780803, 65.150308)"><path style="stroke:none" d="M 22.046875 -9.828125 C 22.046875 -9.753906 22.007812 -9.238281 21.9375 -8.28125 L 6.953125 -8.28125 C 7.222656 -7.050781 7.859375 -6.082031 8.859375 -5.375 C 9.867188 -4.664062 11.125 -4.3125 12.625 -4.3125 C 13.65625 -4.3125 14.566406 -4.460938 15.359375 -4.765625 C 16.160156 -5.078125 16.90625 -5.5625 17.59375 -6.21875 L 20.65625 -2.90625 C 18.789062 -0.769531 16.066406 0.296875 12.484375 0.296875 C 10.242188 0.296875 8.265625 -0.132812 6.546875 -1 C 4.828125 -1.875 3.5 -3.082031 2.5625 -4.625 C 1.632812 -6.175781 1.171875 -7.9375 1.171875 -9.90625 C 1.171875 -11.84375 1.628906 -13.585938 2.546875 -15.140625 C 3.472656 -16.703125 4.738281 -17.914062 6.34375 -18.78125 C 7.957031 -19.65625 9.757812 -20.09375 11.75 -20.09375 C 13.6875 -20.09375 15.4375 -19.675781 17 -18.84375 C 18.570312 -18.007812 19.804688 -16.8125 20.703125 -15.25 C 21.597656 -13.695312 22.046875 -11.890625 22.046875 -9.828125 Z M 11.78125 -15.75 C 10.476562 -15.75 9.382812 -15.378906 8.5 -14.640625 C 7.613281 -13.910156 7.078125 -12.90625 6.890625 -11.625 L 16.640625 -11.625 C 16.441406 -12.882812 15.898438 -13.882812 15.015625 -14.625 C 14.128906 -15.375 13.050781 -15.75 11.78125 -15.75 Z M 11.78125 -15.75 "/></g></g><g style="fill:#ffde59;fill-opacity:1;"><g transform="translate(161.01963, 65.150308)"><path style="stroke:none" d="M 21.984375 -13.40625 C 23.453125 -12.9375 24.601562 -12.15625 25.4375 -11.0625 C 26.269531 -9.96875 26.6875 -8.625 26.6875 -7.03125 C 26.6875 -4.769531 25.804688 -3.03125 24.046875 -1.8125 C 22.296875 -0.601562 19.738281 0 16.375 0 L 3.0625 0 L 3.0625 -25.765625 L 15.640625 -25.765625 C 18.785156 -25.765625 21.195312 -25.160156 22.875 -23.953125 C 24.5625 -22.753906 25.40625 -21.125 25.40625 -19.0625 C 25.40625 -17.8125 25.101562 -16.695312 24.5 -15.71875 C 23.894531 -14.738281 23.054688 -13.96875 21.984375 -13.40625 Z M 8.984375 -21.28125 L 8.984375 -15.203125 L 14.90625 -15.203125 C 16.382812 -15.203125 17.503906 -15.457031 18.265625 -15.96875 C 19.023438 -16.488281 19.40625 -17.253906 19.40625 -18.265625 C 19.40625 -19.265625 19.023438 -20.015625 18.265625 -20.515625 C 17.503906 -21.023438 16.382812 -21.28125 14.90625 -21.28125 Z M 15.9375 -4.484375 C 17.507812 -4.484375 18.691406 -4.738281 19.484375 -5.25 C 20.285156 -5.769531 20.6875 -6.570312 20.6875 -7.65625 C 20.6875 -9.789062 19.101562 -10.859375 15.9375 -10.859375 L 8.984375 -10.859375 L 8.984375 -4.484375 Z M 15.9375 -4.484375 "/></g></g><g style="fill:#000000;fill-opacity:1;"><g transform="translate(189.185778, 65.150308)"><path style="stroke:none" d="M 2.65625 -27.3125 L 8.390625 -27.3125 L 8.390625 0 L 2.65625 0 Z M 2.65625 -27.3125 "/></g></g><g style="fill:#000000;fill-opacity:1;"><g transform="translate(200.265891, 65.150308)"><path style="stroke:none" d="M 12.078125 0.296875 C 9.992188 0.296875 8.117188 -0.132812 6.453125 -1 C 4.796875 -1.875 3.5 -3.082031 2.5625 -4.625 C 1.632812 -6.175781 1.171875 -7.9375 1.171875 -9.90625 C 1.171875 -11.863281 1.632812 -13.613281 2.5625 -15.15625 C 3.5 -16.707031 4.796875 -17.914062 6.453125 -18.78125 C 8.117188 -19.65625 9.992188 -20.09375 12.078125 -20.09375 C 14.160156 -20.09375 16.023438 -19.65625 17.671875 -18.78125 C 19.316406 -17.914062 20.601562 -16.707031 21.53125 -15.15625 C 22.46875 -13.613281 22.9375 -11.863281 22.9375 -9.90625 C 22.9375 -7.9375 22.46875 -6.175781 21.53125 -4.625 C 20.601562 -3.082031 19.316406 -1.875 17.671875 -1 C 16.023438 -0.132812 14.160156 0.296875 12.078125 0.296875 Z M 12.078125 -4.421875 C 13.546875 -4.421875 14.753906 -4.914062 15.703125 -5.90625 C 16.648438 -6.90625 17.125 -8.238281 17.125 -9.90625 C 17.125 -11.570312 16.648438 -12.898438 15.703125 -13.890625 C 14.753906 -14.890625 13.546875 -15.390625 12.078125 -15.390625 C 10.597656 -15.390625 9.378906 -14.890625 8.421875 -13.890625 C 7.472656 -12.898438 7 -11.570312 7 -9.90625 C 7 -8.238281 7.472656 -6.90625 8.421875 -5.90625 C 9.378906 -4.914062 10.597656 -4.421875 12.078125 -4.421875 Z M 12.078125 -4.421875 "/></g></g><g style="fill:#000000;fill-opacity:1;"><g transform="translate(224.377094, 65.150308)"><path style="stroke:none" d="M 12.078125 0.296875 C 9.992188 0.296875 8.117188 -0.132812 6.453125 -1 C 4.796875 -1.875 3.5 -3.082031 2.5625 -4.625 C 1.632812 -6.175781 1.171875 -7.9375 1.171875 -9.90625 C 1.171875 -11.863281 1.632812 -13.613281 2.5625 -15.15625 C 3.5 -16.707031 4.796875 -17.914062 6.453125 -18.78125 C 8.117188 -19.65625 9.992188 -20.09375 12.078125 -20.09375 C 14.160156 -20.09375 16.023438 -19.65625 17.671875 -18.78125 C 19.316406 -17.914062 20.601562 -16.707031 21.53125 -15.15625 C 22.46875 -13.613281 22.9375 -11.863281 22.9375 -9.90625 C 22.9375 -7.9375 22.46875 -6.175781 21.53125 -4.625 C 20.601562 -3.082031 19.316406 -1.875 17.671875 -1 C 16.023438 -0.132812 14.160156 0.296875 12.078125 0.296875 Z M 12.078125 -4.421875 C 13.546875 -4.421875 14.753906 -4.914062 15.703125 -5.90625 C 16.648438 -6.90625 17.125 -8.238281 17.125 -9.90625 C 17.125 -11.570312 16.648438 -12.898438 15.703125 -13.890625 C 14.753906 -14.890625 13.546875 -15.390625 12.078125 -15.390625 C 10.597656 -15.390625 9.378906 -14.890625 8.421875 -13.890625 C 7.472656 -12.898438 7 -11.570312 7 -9.90625 C 7 -8.238281 7.472656 -6.90625 8.421875 -5.90625 C 9.378906 -4.914062 10.597656 -4.421875 12.078125 -4.421875 Z M 12.078125 -4.421875 "/></g></g><g style="fill:#000000;fill-opacity:1;"><g transform="translate(248.488297, 65.150308)"><path style="stroke:none" d="M 28.015625 -20.09375 C 30.492188 -20.09375 32.460938 -19.363281 33.921875 -17.90625 C 35.378906 -16.445312 36.109375 -14.257812 36.109375 -11.34375 L 36.109375 0 L 30.375 0 L 30.375 -10.453125 C 30.375 -12.023438 30.046875 -13.195312 29.390625 -13.96875 C 28.742188 -14.738281 27.816406 -15.125 26.609375 -15.125 C 25.265625 -15.125 24.195312 -14.6875 23.40625 -13.8125 C 22.625 -12.945312 22.234375 -11.65625 22.234375 -9.9375 L 22.234375 0 L 16.484375 0 L 16.484375 -10.453125 C 16.484375 -13.566406 15.234375 -15.125 12.734375 -15.125 C 11.410156 -15.125 10.351562 -14.6875 9.5625 -13.8125 C 8.78125 -12.945312 8.390625 -11.65625 8.390625 -9.9375 L 8.390625 0 L 2.65625 0 L 2.65625 -19.8125 L 8.140625 -19.8125 L 8.140625 -17.515625 C 8.867188 -18.359375 9.765625 -19 10.828125 -19.4375 C 11.898438 -19.875 13.078125 -20.09375 14.359375 -20.09375 C 15.753906 -20.09375 17.015625 -19.816406 18.140625 -19.265625 C 19.273438 -18.710938 20.1875 -17.910156 20.875 -16.859375 C 21.6875 -17.890625 22.710938 -18.6875 23.953125 -19.25 C 25.191406 -19.8125 26.546875 -20.09375 28.015625 -20.09375 Z M 28.015625 -20.09375 "/></g></g><g style="fill:#000000;fill-opacity:1;"><g transform="translate(287.323907, 65.150308)"><path style="stroke:none" d="M 22.046875 -9.828125 C 22.046875 -9.753906 22.007812 -9.238281 21.9375 -8.28125 L 6.953125 -8.28125 C 7.222656 -7.050781 7.859375 -6.082031 8.859375 -5.375 C 9.867188 -4.664062 11.125 -4.3125 12.625 -4.3125 C 13.65625 -4.3125 14.566406 -4.460938 15.359375 -4.765625 C 16.160156 -5.078125 16.90625 -5.5625 17.59375 -6.21875 L 20.65625 -2.90625 C 18.789062 -0.769531 16.066406 0.296875 12.484375 0.296875 C 10.242188 0.296875 8.265625 -0.132812 6.546875 -1 C 4.828125 -1.875 3.5 -3.082031 2.5625 -4.625 C 1.632812 -6.175781 1.171875 -7.9375 1.171875 -9.90625 C 1.171875 -11.84375 1.628906 -13.585938 2.546875 -15.140625 C 3.472656 -16.703125 4.738281 -17.914062 6.34375 -18.78125 C 7.957031 -19.65625 9.757812 -20.09375 11.75 -20.09375 C 13.6875 -20.09375 15.4375 -19.675781 17 -18.84375 C 18.570312 -18.007812 19.804688 -16.8125 20.703125 -15.25 C 21.597656 -13.695312 22.046875 -11.890625 22.046875 -9.828125 Z M 11.78125 -15.75 C 10.476562 -15.75 9.382812 -15.378906 8.5 -14.640625 C 7.613281 -13.910156 7.078125 -12.90625 6.890625 -11.625 L 16.640625 -11.625 C 16.441406 -12.882812 15.898438 -13.882812 15.015625 -14.625 C 14.128906 -15.375 13.050781 -15.75 11.78125 -15.75 Z M 11.78125 -15.75 "/></g></g><g style="fill:#000000;fill-opacity:1;"><g transform="translate(310.551649, 65.150308)"><path style="stroke:none" d="M 8.140625 -17.1875 C 8.828125 -18.144531 9.75 -18.867188 10.90625 -19.359375 C 12.070312 -19.847656 13.421875 -20.09375 14.953125 -20.09375 L 14.953125 -14.796875 C 14.304688 -14.847656 13.875 -14.875 13.65625 -14.875 C 12.007812 -14.875 10.71875 -14.410156 9.78125 -13.484375 C 8.851562 -12.566406 8.390625 -11.1875 8.390625 -9.34375 L 8.390625 0 L 2.65625 0 L 2.65625 -19.8125 L 8.140625 -19.8125 Z M 8.140625 -17.1875 "/></g></g><g style="fill:#000000;fill-opacity:1;"><g transform="translate(326.969361, 65.150308)"><path style="stroke:none" d="M 22.3125 -19.8125 L 13.359375 1.21875 C 12.453125 3.5 11.328125 5.101562 9.984375 6.03125 C 8.648438 6.96875 7.039062 7.4375 5.15625 7.4375 C 4.125 7.4375 3.101562 7.273438 2.09375 6.953125 C 1.09375 6.640625 0.269531 6.195312 -0.375 5.625 L 1.734375 1.546875 C 2.171875 1.941406 2.675781 2.25 3.25 2.46875 C 3.832031 2.6875 4.40625 2.796875 4.96875 2.796875 C 5.75 2.796875 6.382812 2.601562 6.875 2.21875 C 7.375 1.84375 7.816406 1.210938 8.203125 0.328125 L 8.28125 0.140625 L -0.296875 -19.8125 L 5.625 -19.8125 L 11.1875 -6.375 L 16.78125 -19.8125 Z M 22.3125 -19.8125 "/></g></g><path style="fill:none;stroke-width:10;stroke-linecap:butt;stroke-linejoin:miter;stroke:#000000;stroke-opacity:1;stroke-miterlimit:4;" d="M 0.000915544 5.001301 L 60.875921 5.001301 " transform="matrix(0,-0.75,0.75,0,190.487306,66.02803)"/><g clip-rule="nonzero" clip-path="url(#2584027b41)"><g clip-rule="nonzero" clip-path="url(#74e452da97)"><path style=" stroke:none;fill-rule:nonzero;fill:#ffde59;fill-opacity:1;" d="M 185.890625 4.015625 L 204.699219 4.015625 L 204.699219 22.828125 L 185.890625 22.828125 Z M 185.890625 4.015625 "/></g></g></g></svg>